<?xml version="1.0"?>
<svg xmlns="http://www.w3.org/2000/svg" xmlnsXlink="http://www.w3.org/1999/xlink" xmlnsSvgjs="http://svgjs.com/svgjs" version="1.1" width="512" height="512" x="0" y="0" viewBox="0 0 512 512" style="enable-background:new 0 0 512 512" xml:space="preserve" class=""><g>
<g xmlns="http://www.w3.org/2000/svg">
	<g>
		<path d="M436,302c-12.444,0-24.447,5.224-32.932,14.333l-44.087,47.327C353.283,345.34,336.17,332,316,332h-55.423    c-3.718-1.642-7.144-3.833-10.212-6.532c-39.545-34.8-99.187-34.8-138.731,0L70.121,362l-24.118-0.001c-0.001,0-0.002,0-0.003,0    c-8.276,0-15,6.715-15,15V497c0,8.284,6.716,15,15,15h270c32.874,0,64.275-15.701,84-42l72.012-96.015    C477.892,366.149,481,356.817,481,347C481,322.187,460.813,302,436,302z M448.014,355.983L376,452c-14.089,18.785-36.519,30-60,30    H61v-90.001L75.781,392c3.648,0,7.171-1.33,9.91-3.74l45.761-40.271c28.247-24.856,70.847-24.858,99.096,0    c6.325,5.566,19.397,14.01,27.125,14.01H316c8.271,0,15,6.729,15,15s-6.729,15-15,15h-90c-8.284,0-15,6.716-15,15s6.716,15,15,15    h100.054c12.444,0,24.446-5.222,32.928-14.327l66.038-70.892c2.872-3.083,6.771-4.781,10.98-4.781c8.271,0,15,6.729,15,15    C451,350.273,449.968,353.378,448.014,355.983z" fill="#e6e5e8" data-original="#000000" style="" class=""/>
	</g>
</g>
<g xmlns="http://www.w3.org/2000/svg">
	<g>
		<path d="M316,0c-74.439,0-135,60.561-135,135s60.561,135,135,135s135-60.561,135-135S390.439,0,316,0z M316,240    c-57.897,0-105-47.103-105-105c0-57.897,47.103-105,105-105c57.897,0,105,47.103,105,105C421,192.897,373.897,240,316,240z" fill="#e6e5e8" data-original="#000000" style="" class=""/>
	</g>
</g>
<g xmlns="http://www.w3.org/2000/svg">
	<g>
		<path d="M316,120c-8.271,0-15-6.729-15-15s6.729-15,15-15s15,6.729,15,15c0,8.284,6.716,15,15,15s15-6.716,15-15    c0-19.555-12.541-36.228-30-42.42V45c0-8.284-6.716-15-15-15s-15,6.716-15,15v17.58c-17.459,6.192-30,22.865-30,42.42    c0,24.813,20.187,45,45,45c8.271,0,15,6.729,15,15s-6.729,15-15,15s-15-6.729-15-15c0-8.284-6.716-15-15-15s-15,6.716-15,15    c0,19.555,12.541,36.228,30,42.42V225c0,8.284,6.716,15,15,15s15-6.716,15-15v-17.58c17.459-6.192,30-22.865,30-42.42    C361,140.187,340.813,120,316,120z" fill="#e6e5e8" data-original="#000000" style="" class=""/>
	</g>
</g>
<g xmlns="http://www.w3.org/2000/svg">
</g>
<g xmlns="http://www.w3.org/2000/svg">
</g>
<g xmlns="http://www.w3.org/2000/svg">
</g>
<g xmlns="http://www.w3.org/2000/svg">
</g>
<g xmlns="http://www.w3.org/2000/svg">
</g>
<g xmlns="http://www.w3.org/2000/svg">
</g>
<g xmlns="http://www.w3.org/2000/svg">
</g>
<g xmlns="http://www.w3.org/2000/svg">
</g>
<g xmlns="http://www.w3.org/2000/svg">
</g>
<g xmlns="http://www.w3.org/2000/svg">
</g>
<g xmlns="http://www.w3.org/2000/svg">
</g>
<g xmlns="http://www.w3.org/2000/svg">
</g>
<g xmlns="http://www.w3.org/2000/svg">
</g>
<g xmlns="http://www.w3.org/2000/svg">
</g>
<g xmlns="http://www.w3.org/2000/svg">
</g>
</g></svg>
