<?xml version="1.0"?>
<svg xmlns="http://www.w3.org/2000/svg" xmlnsXlink="http://www.w3.org/1999/xlink" xmlnsSvgjs="http://svgjs.com/svgjs" version="1.1" width="512" height="512" x="0" y="0" viewBox="0 0 496.008 496.008" style="enable-background:new 0 0 512 512" xml:space="preserve" class=""><g><path xmlns="http://www.w3.org/2000/svg" d="m490.163 445.494c-2.465-8.486-11.348-13.365-19.828-10.9l-36.341 10.559-28.487-98.046c43.541-20.673 67.176-71.796 50.601-120.406-1.65-4.84-52.302-153.398-56.465-165.606-2.759-8.094-11.401-12.586-19.607-10.201l-116.168 33.752 5.672-23.49c2.008-8.313-2.877-16.734-11.089-19.12l-142.478-41.396c-8.211-2.388-16.849 2.108-19.607 10.201l-56.465 165.606c-16.569 48.593 7.046 99.726 50.601 120.406l-28.487 98.046-36.342-10.559c-8.486-2.464-17.362 2.415-19.828 10.9s2.414 17.363 10.9 19.829l103.41 30.046c8.486 2.465 17.363-2.416 19.828-10.9 2.466-8.486-2.414-17.363-10.9-19.829l-36.34-10.559 28.489-98.054c47.729 5.863 95.161-24.502 107.241-74.537l13.464-55.763 25.598 106.017c12.005 49.723 59.189 80.44 107.241 74.537l28.489 98.054-36.34 10.559c-8.486 2.466-13.366 11.343-10.9 19.829 2.468 8.497 11.355 13.363 19.828 10.9l103.41-30.046c8.486-2.466 13.366-11.343 10.9-19.829zm-86.991-274.89c-30.931 4.819-44.996-7.311-60.182-13.437-21.302-8.594-45.987-9.939-73.531-4.045l-8.298-34.366 113.126-32.868zm-281.451-134.971 113.126 32.868-19.027 78.803c-70.364-14.94-83.639 20.848-128.5-10.778zm75.647 188.092c-4.292 17.772-15.365 32.611-31.182 41.784-53.156 30.83-115.607-21.227-95.998-78.735l6.487-19.025c13.823 8.263 28.25 13.038 43.073 14.206 29.85 2.354 43.882-12.736 88.557-3.525zm101.273 50.254-21.666-89.729c60.094-12.513 60.218 19.427 112.978 19.424 7.746 0 15.645-.818 23.665-2.434l12.202 35.787c12.245 35.913-7.99 74.514-44.247 85.049-36.282 10.545-74.032-11.244-82.932-48.097z" fill="#e6e5e8" data-original="#000000" style="" class=""/></g></svg>
