<?xml version="1.0"?>
<svg xmlns="http://www.w3.org/2000/svg" xmlnsXlink="http://www.w3.org/1999/xlink" xmlnsSvgjs="http://svgjs.com/svgjs" version="1.1" width="512" height="512" x="0" y="0" viewBox="0 0 327.618 327.618" style="enable-background:new 0 0 512 512" xml:space="preserve" class=""><g>
<path xmlns="http://www.w3.org/2000/svg" d="M327.02,85.443c-1.74-6.763-6.971-10.754-11.06-12.186l-78.504-30.454c-6.642-9.761-31.449-40.978-76.993-40.978  c-0.464,0-0.936,0.003-1.405,0.01c-50.173,0.717-74.316,24.884-77.224,28.003L2.693,107.578c-3.367,3.307-3.607,8.653-0.551,12.249  l55.804,65.652c-6.835,56.166-3.083,95.981,11.194,118.402c7.518,11.807,17.867,18.921,30.759,21.146  c2.948,0.508,5.899,0.767,8.773,0.767c32.747,0,59.34-38.593,75.475-100.512c0.626-2.401-0.575,2.39,0,0  c0.003-0.003-0.003,0.003,0,0l35.658-35.658c43.8-1.083,67.184-20.944,79.152-37.68c10.318-14.429,13.979-28.897,15.151-35.095  C325.076,104.602,329.301,94.31,327.02,85.443z M201.536,76.667c-0.266,0.018-0.528,0.026-0.788,0.026  c-6.087,0-11.161-4.752-11.55-10.818c-0.415-6.339,4.42-11.859,10.78-12.293c0.27-0.018,0.531-0.027,0.791-0.027  c6.079,0,11.152,4.747,11.549,10.806C212.731,70.717,207.893,76.235,201.536,76.667z" fill="#ad59ff" data-original="#000000" style="" class=""/>
<g xmlns="http://www.w3.org/2000/svg">
</g>
<g xmlns="http://www.w3.org/2000/svg">
</g>
<g xmlns="http://www.w3.org/2000/svg">
</g>
<g xmlns="http://www.w3.org/2000/svg">
</g>
<g xmlns="http://www.w3.org/2000/svg">
</g>
<g xmlns="http://www.w3.org/2000/svg">
</g>
<g xmlns="http://www.w3.org/2000/svg">
</g>
<g xmlns="http://www.w3.org/2000/svg">
</g>
<g xmlns="http://www.w3.org/2000/svg">
</g>
<g xmlns="http://www.w3.org/2000/svg">
</g>
<g xmlns="http://www.w3.org/2000/svg">
</g>
<g xmlns="http://www.w3.org/2000/svg">
</g>
<g xmlns="http://www.w3.org/2000/svg">
</g>
<g xmlns="http://www.w3.org/2000/svg">
</g>
<g xmlns="http://www.w3.org/2000/svg">
</g>
</g></svg>
